# xmcd
#
# Track frame offsets: 
#        150
#        11942
#        35947
#        54301
#        65553
#        85397
#        101341
#        113981
#        129014
#        145279
#        158650
#        175824
#        193598
#        212686
#
# Disc length: 3156 seconds
#
# Revision: 0
# Processed by: cddbd v1.5PL3 Copyright (c) Steve Scherf et al.
# Submitted via: ExactAudioCopy v0.95a5
#
DISCID=c20c520e
DTITLE=Mike Kindred with Dexter Walker - Handstand
DYEAR=2004
DGENRE=Blues
TTITLE0=Bankable Boogie
TTITLE1=Cover Story
TTITLE2=Liz Ann
TTITLE3=Call Boogie
TTITLE4=If I Still
TTITLE5=Pass Me By
TTITLE6=Main Stem
TTITLE7=Handstand
TTITLE8=Sleazy Boogie
TTITLE9=Can't Stop Lovin'
TTITLE10=Riverboat
TTITLE11=The Cow's Advice
TTITLE12=Doublecross
TTITLE13=Midnight Moon
EXTD=
EXTT0=
EXTT1=
EXTT2=
EXTT3=
EXTT4=
EXTT5=
EXTT6=
EXTT7=
EXTT8=
EXTT9=
EXTT10=
EXTT11=
EXTT12=
EXTT13=
PLAYORDER=
